<?xml version="1.0" standalone="no"?>
<!DOCTYPE svg PUBLIC "-//W3C//DTD SVG 20010904//EN"
 "http://www.w3.org/TR/2001/REC-SVG-20010904/DTD/svg10.dtd">
<svg version="1.0" xmlns="http://www.w3.org/2000/svg"
 width="512.000000pt" height="512.000000pt" viewBox="0 0 512.000000 512.000000"
 preserveAspectRatio="xMidYMid meet">
<metadata>
Created by potrace 1.14, written by Peter Selinger 2001-2017
</metadata>
<g transform="translate(0.000000,512.000000) scale(0.100000,-0.100000)"
fill="#000000" stroke="none">
<path d="M2760 5093 c0 -16 -1 -597 -3 -1293 -2 -986 -6 -1273 -16 -1300 -7
-19 -16 -87 -22 -149 -5 -63 -15 -135 -23 -160 -8 -26 -17 -80 -21 -121 -4
-41 -12 -86 -20 -100 -7 -14 -16 -68 -20 -120 -4 -52 -13 -106 -20 -120 -7
-14 -16 -52 -20 -84 -4 -33 -15 -76 -26 -95 -10 -20 -19 -49 -19 -66 0 -16 -9
-43 -20 -60 -11 -16 -20 -40 -20 -51 0 -12 -9 -33 -20 -47 -11 -14 -20 -32
-20 -40 0 -31 -13 -47 -36 -47 -18 0 -25 7 -30 28 -4 15 -12 34 -20 42 -7 8
-16 29 -20 45 -4 17 -15 46 -26 65 -10 19 -18 46 -18 60 0 14 -9 43 -19 65
-10 23 -21 67 -25 99 -4 31 -14 72 -21 89 -7 18 -17 66 -21 107 -4 41 -13 89
-20 106 -7 18 -16 69 -20 115 -4 46 -13 102 -21 124 -8 22 -18 84 -23 138 -4
54 -13 104 -19 111 -7 8 -16 51 -21 97 -5 45 -16 103 -24 128 -8 25 -17 84
-20 131 -2 47 -11 99 -19 115 -8 17 -18 61 -22 98 -4 38 -13 83 -20 101 -7 17
-17 65 -20 106 -4 41 -14 87 -21 101 -7 14 -16 50 -20 80 -4 30 -15 72 -25 94
-10 22 -19 54 -19 71 0 17 -6 37 -14 43 -8 7 -17 24 -21 39 -3 15 -20 42 -38
60 -26 27 -38 32 -77 32 -39 0 -51 -5 -77 -32 -38 -41 -73 -116 -81 -171 -3
-23 -11 -51 -18 -62 -7 -11 -17 -47 -22 -80 -6 -33 -17 -78 -26 -100 -8 -22
-15 -61 -16 -87 0 -26 -9 -70 -20 -98 -13 -32 -20 -75 -20 -118 -1 -37 -7 -85
-15 -107 -8 -22 -19 -77 -25 -122 -6 -45 -16 -96 -24 -115 -7 -18 -16 -70 -20
-115 -3 -45 -12 -99 -20 -120 -7 -21 -17 -77 -21 -123 -4 -47 -13 -99 -20
-116 -7 -18 -16 -67 -20 -110 -4 -44 -14 -95 -22 -114 -8 -19 -18 -73 -23
-118 -5 -46 -14 -90 -20 -97 -6 -7 -15 -49 -20 -92 -4 -43 -15 -95 -24 -115
-9 -21 -16 -46 -16 -56 0 -11 -8 -30 -19 -43 -10 -13 -22 -38 -25 -56 -4 -17
-13 -37 -21 -43 -7 -6 -16 -26 -19 -44 -4 -19 -14 -37 -23 -40 -18 -7 -43 10
-43 29 0 7 -9 24 -20 38 -11 14 -20 33 -20 42 0 10 -9 32 -19 49 -11 17 -23
49 -27 71 -4 22 -13 49 -20 61 -8 11 -17 43 -20 70 -3 27 -14 75 -25 107 -10
31 -19 77 -19 102 0 25 -7 62 -16 83 -8 20 -20 73 -26 117 -6 44 -15 88 -20
99 -6 10 -14 64 -19 119 -5 55 -15 121 -23 146 -8 25 -17 81 -21 123 -3 43
-12 93 -20 111 -8 19 -17 65 -21 103 -4 38 -13 84 -21 103 -7 19 -16 75 -20
125 -3 50 -12 104 -20 119 -8 15 -17 58 -20 95 -3 37 -14 89 -24 115 -11 26
-19 64 -19 83 0 19 -9 52 -20 74 -11 22 -20 52 -20 67 0 16 -9 45 -20 66 -11
20 -20 46 -20 58 0 12 -18 43 -41 70 -37 45 -45 49 -84 49 -38 0 -49 -6 -94
-50 -28 -28 -51 -59 -51 -70 0 -12 -9 -38 -20 -60 -11 -22 -20 -53 -20 -69 0
-17 -9 -53 -20 -81 -11 -28 -20 -65 -20 -83 -1 -18 -8 -50 -16 -72 -9 -22 -20
-71 -25 -110 -5 -38 -16 -86 -23 -105 -8 -19 -17 -69 -21 -110 -8 -92 -22
-140 -41 -140 -12 0 -14 -41 -14 -250 0 -137 4 -250 9 -250 12 0 21 52 21 121
0 32 7 78 15 103 8 24 20 79 25 121 5 41 15 85 21 97 7 12 16 59 20 103 5 44
15 96 22 115 8 19 17 66 21 104 4 38 11 77 17 88 6 10 16 51 24 91 7 40 20 90
29 112 8 22 15 51 16 65 0 14 9 36 20 50 11 14 20 34 20 45 0 11 8 32 18 45 9
14 22 38 27 55 7 20 17 30 30 30 13 0 23 -10 30 -30 6 -17 18 -41 28 -55 9
-13 17 -30 17 -37 0 -7 9 -27 20 -45 11 -18 20 -41 20 -51 0 -10 8 -37 19 -60
10 -23 22 -66 25 -96 4 -30 13 -66 20 -80 7 -14 17 -60 20 -101 4 -41 14 -86
21 -100 8 -15 17 -55 20 -91 4 -35 13 -85 21 -110 8 -26 19 -89 24 -140 5 -52
16 -119 25 -149 8 -30 15 -78 15 -108 0 -29 7 -69 16 -90 8 -20 20 -75 26
-122 5 -47 15 -94 21 -105 6 -11 14 -63 18 -115 4 -52 14 -111 22 -130 8 -19
17 -66 21 -104 4 -38 13 -80 20 -95 8 -14 17 -51 21 -81 4 -30 13 -66 20 -80
7 -14 18 -48 24 -75 27 -135 76 -220 136 -236 62 -17 105 1 143 60 18 27 32
56 32 65 0 10 6 29 14 44 8 15 17 54 21 87 4 33 13 71 20 85 7 14 16 47 20 74
4 28 15 72 26 98 10 27 19 69 19 93 0 25 9 71 19 102 11 32 22 88 25 125 3 38
11 78 17 90 7 13 16 63 20 112 5 50 15 110 23 135 8 26 18 82 21 125 4 44 13
96 20 116 7 21 17 80 21 131 4 52 13 107 19 124 7 16 16 62 20 100 4 39 14 86
22 105 8 19 18 70 23 114 5 43 14 84 20 91 6 7 13 37 17 66 3 30 14 71 24 91
11 21 19 43 19 50 0 7 11 34 25 60 14 26 25 56 25 67 0 28 27 51 60 51 29 0
40 -15 40 -54 0 -13 9 -35 20 -49 11 -14 20 -34 20 -44 0 -10 8 -34 19 -53 10
-19 23 -64 29 -99 6 -35 16 -69 21 -75 6 -7 15 -44 21 -82 5 -38 16 -87 25
-109 8 -22 14 -70 15 -107 0 -41 7 -86 19 -115 10 -26 21 -81 25 -121 4 -40
13 -87 20 -105 7 -18 16 -73 19 -123 4 -50 13 -106 20 -125 8 -19 18 -74 21
-122 4 -49 12 -101 18 -115 6 -15 17 -72 24 -127 7 -55 20 -125 28 -155 9 -30
16 -71 16 -92 0 -20 9 -60 20 -88 11 -28 20 -66 20 -85 0 -19 9 -57 20 -85 11
-28 20 -65 20 -83 1 -18 9 -50 20 -72 11 -22 20 -49 20 -60 1 -25 56 -108 78
-117 27 -10 89 -9 114 3 27 12 78 88 78 115 0 11 9 39 20 63 11 24 20 60 20
80 0 20 7 50 16 66 9 17 20 68 24 115 5 47 15 102 24 122 9 20 19 62 22 92 8
67 26 98 46 78 10 -11 14 -190 16 -942 l2 -930 113 0 112 0 -2 1502 c-1 827
-4 1544 -7 1593 -4 74 -2 97 13 129 12 26 17 52 14 80 -3 26 1 56 11 80 9 21
16 51 16 67 0 16 9 46 20 66 11 21 20 45 20 55 0 29 12 48 29 48 18 0 71 -89
71 -120 0 -12 9 -38 20 -60 11 -22 20 -50 20 -64 0 -14 9 -48 20 -76 11 -28
20 -70 20 -93 0 -24 9 -68 20 -100 11 -31 20 -80 20 -109 1 -29 8 -71 16 -93
8 -22 18 -85 23 -140 5 -55 14 -113 21 -130 6 -16 16 -75 20 -130 5 -55 16
-125 24 -155 9 -30 16 -85 16 -123 0 -37 7 -84 15 -104 10 -23 15 -69 15 -135
0 -76 4 -107 17 -129 15 -25 16 -34 4 -71 -11 -34 -15 -225 -18 -915 l-5 -873
156 0 157 0 -1 541 c-1 595 -3 580 59 594 32 7 91 80 91 113 0 9 9 37 20 61
11 24 20 57 20 75 1 17 8 49 16 71 9 22 20 69 26 104 5 36 15 76 22 90 8 14
17 64 21 111 4 47 13 100 21 118 7 18 16 74 20 125 4 51 13 110 20 132 8 22
16 76 20 120 3 44 12 100 20 125 8 25 18 89 23 142 5 53 14 105 20 117 6 11
16 68 22 127 5 59 15 116 21 127 6 11 15 56 19 100 5 43 15 91 23 105 7 15 16
58 20 96 4 38 13 81 21 95 7 15 17 45 21 66 4 22 15 56 25 75 11 19 19 42 19
51 0 26 61 139 75 139 13 0 35 -49 35 -80 0 -10 6 -23 14 -29 8 -7 18 -27 22
-44 4 -18 15 -48 25 -67 11 -19 19 -47 19 -62 0 -15 9 -50 20 -78 11 -28 20
-71 20 -95 0 -25 9 -71 19 -102 11 -32 22 -95 25 -140 4 -45 13 -97 21 -116 8
-19 17 -65 21 -103 4 -38 13 -86 20 -107 7 -21 16 -86 20 -145 4 -59 13 -122
20 -141 8 -19 18 -80 23 -136 5 -57 14 -112 20 -124 7 -12 16 -65 21 -119 4
-53 15 -114 24 -134 9 -21 16 -59 16 -85 1 -26 8 -66 16 -88 9 -22 22 -72 29
-112 8 -40 18 -80 23 -90 5 -10 13 -43 16 -75 4 -31 16 -73 27 -94 10 -21 19
-43 19 -49 0 -26 59 -67 104 -72 l46 -6 0 67 0 66 -29 0 c-36 0 -61 23 -61 56
0 14 -11 46 -25 72 -14 26 -25 52 -25 58 0 7 -9 31 -20 55 -11 24 -20 66 -20
92 0 26 -7 64 -16 85 -9 20 -20 74 -25 120 -5 46 -14 93 -21 105 -6 12 -15 63
-19 114 -4 51 -14 112 -22 135 -8 24 -18 83 -22 132 -4 48 -13 103 -20 120 -8
18 -17 68 -20 112 -4 43 -13 97 -20 119 -8 22 -19 88 -24 146 -5 59 -14 116
-20 128 -7 12 -16 66 -21 122 -4 55 -13 106 -20 114 -6 7 -15 49 -19 92 -4 43
-14 89 -20 102 -7 13 -17 52 -22 88 -5 36 -16 74 -24 86 -8 12 -15 32 -15 44
0 35 -46 116 -80 141 -17 13 -44 22 -65 22 -29 0 -43 -8 -80 -47 -29 -30 -45
-56 -45 -72 -1 -14 -9 -44 -20 -66 -11 -22 -19 -55 -20 -73 0 -18 -9 -54 -19
-80 -11 -26 -22 -73 -25 -105 -4 -32 -12 -73 -20 -91 -7 -18 -17 -75 -21 -126
-4 -51 -13 -107 -20 -124 -7 -17 -16 -71 -20 -121 -4 -49 -13 -104 -20 -122
-8 -18 -16 -69 -20 -115 -4 -46 -13 -103 -21 -128 -8 -25 -18 -89 -23 -142 -5
-53 -14 -105 -20 -116 -6 -11 -15 -57 -20 -103 -5 -46 -16 -100 -24 -119 -8
-19 -17 -71 -20 -115 -3 -44 -12 -96 -20 -115 -8 -19 -18 -62 -22 -95 -4 -33
-13 -72 -21 -86 -7 -15 -17 -46 -20 -70 -4 -24 -16 -57 -26 -74 -10 -16 -18
-37 -18 -45 0 -8 -12 -41 -27 -73 -36 -75 -58 -74 -86 3 -25 70 -26 114 -1
141 19 21 19 60 22 1818 1 988 0 1811 -3 1829 l-6 32 -113 0 -113 0 -7 -282
c-3 -156 -11 -447 -16 -648 -6 -201 -12 -435 -14 -520 -3 -85 -5 -306 -5 -490
-1 -191 -5 -341 -11 -350 -18 -29 -34 8 -40 92 -4 46 -14 97 -23 113 -9 17
-18 62 -20 101 -3 45 -12 85 -26 112 -11 22 -21 60 -21 82 0 22 -9 58 -20 80
-11 22 -20 54 -20 72 0 18 -9 50 -20 71 -11 20 -20 46 -20 56 0 11 -20 44 -46
75 l-45 56 -58 0 c-40 0 -63 -5 -71 -15 -7 -8 -19 -15 -28 -15 -13 0 -14 27
-9 228 4 125 10 442 14 705 l6 477 -126 0 -127 0 0 -27z m730 -2434 c0 -31 -4
-48 -10 -44 -17 11 -12 95 7 95 2 0 3 -23 3 -51z"/>
</g>
</svg>
